<?xml version="1.0" encoding="utf-8"?>
<!-- Generator: Adobe Illustrator 22.1.0, SVG Export Plug-In . SVG Version: 6.00 Build 0)  -->
<svg version="1.1" id="Layer_1" xmlns="http://www.w3.org/2000/svg" xmlns:xlink="http://www.w3.org/1999/xlink" x="0px" y="0px"
	 viewBox="0 0 924 434" style="enable-background:new 0 0 924 434;" xml:space="preserve">
<style type="text/css">
	.st0{fill:url(#SVGID_1_);}
	.st1{fill:url(#SVGID_2_);}
	.st2{fill:url(#SVGID_3_);}
	.st3{fill:url(#SVGID_4_);}
	.st4{fill:url(#SVGID_5_);}
	.st5{fill:url(#SVGID_6_);}
	.st6{fill:url(#SVGID_7_);}
	.st7{fill:url(#SVGID_8_);}
	.st8{fill:url(#SVGID_9_);}
	.st9{fill:url(#SVGID_10_);}
	.st10{fill:url(#SVGID_11_);}
	.st11{fill:url(#SVGID_12_);}
	.st12{fill:url(#SVGID_13_);}
	.st13{fill:url(#SVGID_14_);}
	.st14{fill:url(#SVGID_15_);}
	.st15{fill:url(#SVGID_16_);}
	.st16{fill:url(#SVGID_17_);}
	.st17{fill:url(#SVGID_18_);}
	.st18{fill:url(#SVGID_19_);}
	.st19{fill:url(#SVGID_20_);}
	.st20{fill:url(#SVGID_21_);}
	.st21{fill:url(#SVGID_22_);}
	.st22{fill:url(#SVGID_23_);}
	.st23{fill:url(#SVGID_24_);}
	.st24{fill:url(#SVGID_25_);}
	.st25{fill:url(#SVGID_26_);}
	.st26{fill:url(#SVGID_27_);}
	.st27{fill:url(#SVGID_28_);}
	.st28{fill:url(#SVGID_29_);}
	.st29{fill:url(#SVGID_30_);}
	.st30{fill:url(#SVGID_31_);}
	.st31{fill:url(#SVGID_32_);}
	.st32{fill:url(#SVGID_33_);}
	.st33{fill:url(#SVGID_34_);}
	.st34{fill:url(#SVGID_35_);}
	.st35{fill:url(#SVGID_36_);}
	.st36{fill:url(#SVGID_37_);}
	.st37{fill:url(#SVGID_38_);}
	.st38{fill:url(#SVGID_39_);}
	.st39{fill:url(#SVGID_40_);}
	.st40{fill:url(#SVGID_41_);}
	.st41{fill:url(#SVGID_42_);}
	.st42{fill:#3A3C3C;}
</style>
<g>
	<g>
		
			<linearGradient id="SVGID_1_" gradientUnits="userSpaceOnUse" x1="363.179" y1="341.231" x2="172.9924" y2="224.75" gradientTransform="matrix(1 -1.880132e-03 1.880185e-03 1 -1.8245 -0.2122)">
			<stop  offset="2.414416e-03" style="stop-color:#0000E2"/>
			<stop  offset="1" style="stop-color:#38ADFF"/>
		</linearGradient>
		<polygon class="st0" points="214,267.4 243.1,250.5 214,233.8 		"/>
		
			<linearGradient id="SVGID_2_" gradientUnits="userSpaceOnUse" x1="279.9333" y1="108.8379" x2="117.3864" y2="213.4734" gradientTransform="matrix(1 -1.880132e-03 1.880185e-03 1 -1.8245 -0.2122)">
			<stop  offset="2.944410e-03" style="stop-color:#9BD7FF"/>
			<stop  offset="1" style="stop-color:#38ADFF"/>
		</linearGradient>
		<polygon class="st1" points="242.9,116.2 242.9,116.2 242.9,116.2 184.7,149.9 184.8,183.4 242.9,149.7 		"/>
		
			<linearGradient id="SVGID_3_" gradientUnits="userSpaceOnUse" x1="366.3" y1="243.0045" x2="203.753" y2="347.64" gradientTransform="matrix(1 -1.880132e-03 1.880185e-03 1 -1.8245 -0.2122)">
			<stop  offset="2.944410e-03" style="stop-color:#9BD7FF"/>
			<stop  offset="1" style="stop-color:#38ADFF"/>
		</linearGradient>
		<polygon class="st2" points="301.4,284.1 301.4,284.1 272.3,301 		"/>
		
			<linearGradient id="SVGID_4_" gradientUnits="userSpaceOnUse" x1="312.4789" y1="159.3956" x2="149.9313" y2="264.0315" gradientTransform="matrix(1 -1.880132e-03 1.880185e-03 1 -1.8245 -0.2122)">
			<stop  offset="2.944410e-03" style="stop-color:#9BD7FF"/>
			<stop  offset="1" style="stop-color:#38ADFF"/>
		</linearGradient>
		<polygon class="st3" points="272.1,166.4 272.1,166.4 300.4,182.7 		"/>
		
			<linearGradient id="SVGID_5_" gradientUnits="userSpaceOnUse" x1="337.0044" y1="197.495" x2="174.4576" y2="302.1304" gradientTransform="matrix(1 -1.880132e-03 1.880185e-03 1 -1.8245 -0.2122)">
			<stop  offset="2.944410e-03" style="stop-color:#9BD7FF"/>
			<stop  offset="1" style="stop-color:#38ADFF"/>
		</linearGradient>
		<polygon class="st4" points="301.2,149.7 301.2,183.2 330.4,199.9 330.5,267.2 359.6,250.3 359.5,183.2 		"/>
		
			<linearGradient id="SVGID_6_" gradientUnits="userSpaceOnUse" x1="350.5328" y1="218.5107" x2="187.9856" y2="323.1463" gradientTransform="matrix(1 -1.880132e-03 1.880185e-03 1 -1.8245 -0.2122)">
			<stop  offset="2.944410e-03" style="stop-color:#9BD7FF"/>
			<stop  offset="1" style="stop-color:#38ADFF"/>
		</linearGradient>
		<polygon class="st5" points="301.4,284 243.1,250.5 243.2,284.2 272.3,301 301.4,284.1 301.4,284 		"/>
		
			<linearGradient id="SVGID_7_" gradientUnits="userSpaceOnUse" x1="316.6852" y1="412.4558" x2="249.5607" y2="213.7146" gradientTransform="matrix(1 -1.880132e-03 1.880185e-03 1 -1.8245 -0.2122)">
			<stop  offset="1.923681e-03" style="stop-color:#005AFF"/>
			<stop  offset="0.9995" style="stop-color:#00B8FF"/>
		</linearGradient>
		<polygon class="st6" points="301.4,284 243.1,250.5 243.2,284.2 272.3,301 301.4,284 		"/>
		
			<linearGradient id="SVGID_8_" gradientUnits="userSpaceOnUse" x1="310.0669" y1="155.6482" x2="147.5194" y2="260.2841" gradientTransform="matrix(1 -1.880132e-03 1.880185e-03 1 -1.8245 -0.2122)">
			<stop  offset="2.944410e-03" style="stop-color:#9BD7FF"/>
			<stop  offset="1" style="stop-color:#38ADFF"/>
		</linearGradient>
		<polygon class="st7" points="184.8,217 214,233.8 214,233.8 		"/>
		
			<linearGradient id="SVGID_9_" gradientUnits="userSpaceOnUse" x1="310.0669" y1="155.6482" x2="147.5194" y2="260.2841" gradientTransform="matrix(1 -1.880132e-03 1.880185e-03 1 -1.8245 -0.2122)">
			<stop  offset="2.944410e-03" style="stop-color:#CDEBFF"/>
			<stop  offset="1" style="stop-color:#69C2FF"/>
		</linearGradient>
		<polygon class="st8" points="184.8,217 214,233.8 214,233.8 		"/>
		
			<linearGradient id="SVGID_10_" gradientUnits="userSpaceOnUse" x1="296.5238" y1="134.6101" x2="133.9763" y2="239.246" gradientTransform="matrix(1 -1.880132e-03 1.880185e-03 1 -1.8245 -0.2122)">
			<stop  offset="2.944410e-03" style="stop-color:#9BD7FF"/>
			<stop  offset="1" style="stop-color:#38ADFF"/>
		</linearGradient>
		<polygon class="st9" points="272.1,166.4 242.9,149.7 272.1,166.4 		"/>
		
			<linearGradient id="SVGID_11_" gradientUnits="userSpaceOnUse" x1="296.5238" y1="134.6101" x2="133.9763" y2="239.246" gradientTransform="matrix(1 -1.880132e-03 1.880185e-03 1 -1.8245 -0.2122)">
			<stop  offset="2.944410e-03" style="stop-color:#9BD7FF"/>
			<stop  offset="1" style="stop-color:#69C2FF"/>
		</linearGradient>
		<polygon class="st10" points="272.1,166.4 242.9,149.7 272.1,166.4 		"/>
		
			<linearGradient id="SVGID_12_" gradientUnits="userSpaceOnUse" x1="296.5238" y1="134.6101" x2="133.9763" y2="239.246" gradientTransform="matrix(1 -1.880132e-03 1.880185e-03 1 -1.8245 -0.2122)">
			<stop  offset="2.944410e-03" style="stop-color:#CDEBFF"/>
			<stop  offset="1" style="stop-color:#69C2FF"/>
		</linearGradient>
		<polygon class="st11" points="272.1,166.4 242.9,149.7 272.1,166.4 		"/>
		
			<linearGradient id="SVGID_13_" gradientUnits="userSpaceOnUse" x1="326.2498" y1="180.7876" x2="163.7022" y2="285.4235" gradientTransform="matrix(1 -1.880132e-03 1.880185e-03 1 -1.8245 -0.2122)">
			<stop  offset="2.944410e-03" style="stop-color:#9BD7FF"/>
			<stop  offset="1" style="stop-color:#38ADFF"/>
		</linearGradient>
		<polygon class="st12" points="214,233.8 243.1,250.5 214,233.8 		"/>
		
			<linearGradient id="SVGID_14_" gradientUnits="userSpaceOnUse" x1="326.2498" y1="180.7876" x2="163.7022" y2="285.4235" gradientTransform="matrix(1 -1.880132e-03 1.880185e-03 1 -1.8245 -0.2122)">
			<stop  offset="2.944410e-03" style="stop-color:#CDEBFF"/>
			<stop  offset="1" style="stop-color:#69C2FF"/>
		</linearGradient>
		<polygon class="st13" points="214,233.8 243.1,250.5 214,233.8 		"/>
		
			<linearGradient id="SVGID_15_" gradientUnits="userSpaceOnUse" x1="370.6693" y1="329.0011" x2="180.4827" y2="212.5201" gradientTransform="matrix(1 -1.880132e-03 1.880185e-03 1 -1.8245 -0.2122)">
			<stop  offset="2.414416e-03" style="stop-color:#0000E2"/>
			<stop  offset="1" style="stop-color:#38ADFF"/>
		</linearGradient>
		<polygon class="st14" points="214,233.8 243.1,250.5 214,233.8 		"/>
		
			<linearGradient id="SVGID_16_" gradientUnits="userSpaceOnUse" x1="341.5685" y1="204.5851" x2="179.0214" y2="309.2207" gradientTransform="matrix(1 -1.880132e-03 1.880185e-03 1 -1.8245 -0.2122)">
			<stop  offset="2.944410e-03" style="stop-color:#9BD7FF"/>
			<stop  offset="1" style="stop-color:#38ADFF"/>
		</linearGradient>
		<polygon class="st15" points="214,267.4 243.2,284.2 243.1,250.5 		"/>
		
			<linearGradient id="SVGID_17_" gradientUnits="userSpaceOnUse" x1="121.7842" y1="342.8552" x2="271.8276" y2="250.7233" gradientTransform="matrix(1 -1.880132e-03 1.880185e-03 1 -1.8245 -0.2122)">
			<stop  offset="1.923681e-03" style="stop-color:#0000E2"/>
			<stop  offset="1" style="stop-color:#38ADFF"/>
		</linearGradient>
		<polygon class="st16" points="214,267.4 243.2,284.2 243.1,250.5 		"/>
		
			<linearGradient id="SVGID_18_" gradientUnits="userSpaceOnUse" x1="333.9035" y1="192.678" x2="171.3565" y2="297.3136" gradientTransform="matrix(1 -1.880132e-03 1.880185e-03 1 -1.8245 -0.2122)">
			<stop  offset="2.944410e-03" style="stop-color:#9BD7FF"/>
			<stop  offset="1" style="stop-color:#38ADFF"/>
		</linearGradient>
		<polygon class="st17" points="214,267.4 214,267.4 243.1,250.5 		"/>
		
			<linearGradient id="SVGID_19_" gradientUnits="userSpaceOnUse" x1="70.8068" y1="354.1926" x2="353.1254" y2="186.3808" gradientTransform="matrix(1 -1.880132e-03 1.880185e-03 1 -1.8245 -0.2122)">
			<stop  offset="1.923681e-03" style="stop-color:#0000E2"/>
			<stop  offset="1" style="stop-color:#00D0FF"/>
		</linearGradient>
		<polygon class="st18" points="214,267.4 214,267.4 243.1,250.5 		"/>
		
			<linearGradient id="SVGID_20_" gradientUnits="userSpaceOnUse" x1="114.2745" y1="330.6252" x2="264.318" y2="238.4933" gradientTransform="matrix(1 -1.880132e-03 1.880185e-03 1 -1.8245 -0.2122)">
			<stop  offset="1.923681e-03" style="stop-color:#0000E2"/>
			<stop  offset="1" style="stop-color:#38ADFF"/>
		</linearGradient>
		<polygon class="st19" points="214,267.4 214,267.4 243.1,250.5 		"/>
		
			<linearGradient id="SVGID_21_" gradientUnits="userSpaceOnUse" x1="304.166" y1="146.4822" x2="141.619" y2="251.1178" gradientTransform="matrix(1 -1.880132e-03 1.880185e-03 1 -1.8245 -0.2122)">
			<stop  offset="2.944410e-03" style="stop-color:#9BD7FF"/>
			<stop  offset="1" style="stop-color:#38ADFF"/>
		</linearGradient>
		<polygon class="st20" points="272.1,166.4 243,183.3 243,183.3 		"/>
		
			<linearGradient id="SVGID_22_" gradientUnits="userSpaceOnUse" x1="304.166" y1="146.4822" x2="141.619" y2="251.1178" gradientTransform="matrix(1 -1.880132e-03 1.880185e-03 1 -1.8245 -0.2122)">
			<stop  offset="2.944410e-03" style="stop-color:#CDEBFF"/>
			<stop  offset="1" style="stop-color:#69C2FF"/>
		</linearGradient>
		<polygon class="st21" points="272.1,166.4 243,183.3 243,183.3 		"/>
		
			<linearGradient id="SVGID_23_" gradientUnits="userSpaceOnUse" x1="304.166" y1="146.4822" x2="141.619" y2="251.1178" gradientTransform="matrix(1 -1.880132e-03 1.880185e-03 1 -1.8245 -0.2122)">
			<stop  offset="2.944410e-03" style="stop-color:#69C2FF"/>
			<stop  offset="1" style="stop-color:#38ADFF"/>
		</linearGradient>
		<polygon class="st22" points="272.1,166.4 243,183.3 243,183.3 		"/>
		
			<linearGradient id="SVGID_24_" gradientUnits="userSpaceOnUse" x1="318.5857" y1="168.8826" x2="156.0387" y2="273.518" gradientTransform="matrix(1 -1.880132e-03 1.880185e-03 1 -1.8245 -0.2122)">
			<stop  offset="2.944410e-03" style="stop-color:#9BD7FF"/>
			<stop  offset="1" style="stop-color:#38ADFF"/>
		</linearGradient>
		<polygon class="st23" points="213.9,200.1 214,233.8 243.1,250.5 243,183.3 		"/>
		
			<linearGradient id="SVGID_25_" gradientUnits="userSpaceOnUse" x1="318.5857" y1="168.8826" x2="156.0387" y2="273.518" gradientTransform="matrix(1 -1.880132e-03 1.880185e-03 1 -1.8245 -0.2122)">
			<stop  offset="2.944410e-03" style="stop-color:#CDEBFF"/>
			<stop  offset="1" style="stop-color:#69C2FF"/>
		</linearGradient>
		<polygon class="st24" points="213.9,200.1 214,233.8 243.1,250.5 243,183.3 		"/>
		
			<linearGradient id="SVGID_26_" gradientUnits="userSpaceOnUse" x1="318.5857" y1="168.8826" x2="156.0387" y2="273.518" gradientTransform="matrix(1 -1.880132e-03 1.880185e-03 1 -1.8245 -0.2122)">
			<stop  offset="2.944410e-03" style="stop-color:#38ADFF"/>
			<stop  offset="1" style="stop-color:#9BD7FF"/>
		</linearGradient>
		<polygon class="st25" points="213.9,200.1 214,233.8 243.1,250.5 243,183.3 		"/>
		
			<linearGradient id="SVGID_27_" gradientUnits="userSpaceOnUse" x1="303.2769" y1="145.101" x2="140.7299" y2="249.7366" gradientTransform="matrix(1 -1.880132e-03 1.880185e-03 1 -1.8245 -0.2122)">
			<stop  offset="2.944410e-03" style="stop-color:#9BD7FF"/>
			<stop  offset="1" style="stop-color:#38ADFF"/>
		</linearGradient>
		<polygon class="st26" points="243,183.3 213.9,200.1 243,183.3 		"/>
		
			<linearGradient id="SVGID_28_" gradientUnits="userSpaceOnUse" x1="303.2769" y1="145.101" x2="140.7299" y2="249.7366" gradientTransform="matrix(1 -1.880132e-03 1.880185e-03 1 -1.8245 -0.2122)">
			<stop  offset="2.944410e-03" style="stop-color:#CDEBFF"/>
			<stop  offset="1" style="stop-color:#69C2FF"/>
		</linearGradient>
		<polygon class="st27" points="243,183.3 213.9,200.1 243,183.3 		"/>
		
			<linearGradient id="SVGID_29_" gradientUnits="userSpaceOnUse" x1="303.2769" y1="145.101" x2="140.7299" y2="249.7366" gradientTransform="matrix(1 -1.880132e-03 1.880185e-03 1 -1.8245 -0.2122)">
			<stop  offset="2.944410e-03" style="stop-color:#69C2FF"/>
			<stop  offset="1" style="stop-color:#38ADFF"/>
		</linearGradient>
		<polygon class="st28" points="243,183.3 213.9,200.1 243,183.3 		"/>
		
			<linearGradient id="SVGID_30_" gradientUnits="userSpaceOnUse" x1="303.2769" y1="145.101" x2="140.7299" y2="249.7366" gradientTransform="matrix(1 -1.880132e-03 1.880185e-03 1 -1.8245 -0.2122)">
			<stop  offset="2.944410e-03" style="stop-color:#38ADFF"/>
			<stop  offset="1" style="stop-color:#9BD7FF"/>
		</linearGradient>
		<polygon class="st29" points="243,183.3 213.9,200.1 243,183.3 		"/>
		
			<linearGradient id="SVGID_31_" gradientUnits="userSpaceOnUse" x1="296.5237" y1="134.6102" x2="133.9767" y2="239.2457" gradientTransform="matrix(1 -1.880132e-03 1.880185e-03 1 -1.8245 -0.2122)">
			<stop  offset="2.944410e-03" style="stop-color:#9BD7FF"/>
			<stop  offset="1" style="stop-color:#38ADFF"/>
		</linearGradient>
		<polygon class="st30" points="242.9,149.7 242.9,149.7 243,183.3 272.1,166.4 		"/>
		
			<linearGradient id="SVGID_32_" gradientUnits="userSpaceOnUse" x1="296.5237" y1="134.6102" x2="133.9767" y2="239.2457" gradientTransform="matrix(1 -1.880132e-03 1.880185e-03 1 -1.8245 -0.2122)">
			<stop  offset="2.944410e-03" style="stop-color:#CDEBFF"/>
			<stop  offset="1" style="stop-color:#69C2FF"/>
		</linearGradient>
		<polygon class="st31" points="242.9,149.7 242.9,149.7 243,183.3 272.1,166.4 		"/>
		
			<linearGradient id="SVGID_33_" gradientUnits="userSpaceOnUse" x1="296.5237" y1="134.6102" x2="133.9767" y2="239.2457" gradientTransform="matrix(1 -1.880132e-03 1.880185e-03 1 -1.8245 -0.2122)">
			<stop  offset="2.944410e-03" style="stop-color:#69C2FF"/>
			<stop  offset="1" style="stop-color:#38ADFF"/>
		</linearGradient>
		<polygon class="st32" points="242.9,149.7 242.9,149.7 243,183.3 272.1,166.4 		"/>
		
			<linearGradient id="SVGID_34_" gradientUnits="userSpaceOnUse" x1="296.5237" y1="134.6102" x2="133.9767" y2="239.2457" gradientTransform="matrix(1 -1.880132e-03 1.880185e-03 1 -1.8245 -0.2122)">
			<stop  offset="2.944410e-03" style="stop-color:#9BD7FF"/>
			<stop  offset="1" style="stop-color:#38ADFF"/>
		</linearGradient>
		<polygon class="st33" points="242.9,149.7 242.9,149.7 243,183.3 272.1,166.4 		"/>
		
			<linearGradient id="SVGID_35_" gradientUnits="userSpaceOnUse" x1="303.2641" y1="276.554" x2="199.2374" y2="364.7791" gradientTransform="matrix(1 -1.880132e-03 1.880185e-03 1 -1.8245 -0.2122)">
			<stop  offset="2.434045e-03" style="stop-color:#00B8FF"/>
			<stop  offset="1" style="stop-color:#0000E2"/>
		</linearGradient>
		<polygon class="st34" points="243.2,284.2 243.2,317.7 272.4,334.6 301.5,317.8 301.4,284 272.3,301 		"/>
		
			<linearGradient id="SVGID_36_" gradientUnits="userSpaceOnUse" x1="48.238" y1="316.2239" x2="330.5564" y2="148.4122" gradientTransform="matrix(1 -1.880132e-03 1.880185e-03 1 -1.8245 -0.2122)">
			<stop  offset="1.923681e-03" style="stop-color:#0000E2"/>
			<stop  offset="1" style="stop-color:#00D0FF"/>
		</linearGradient>
		<polygon class="st35" points="214,233.8 184.8,217 184.8,183.4 126.6,217.2 126.7,250.7 185.1,284.2 214,267.4 		"/>
		
			<linearGradient id="SVGID_37_" gradientUnits="userSpaceOnUse" x1="302.4271" y1="143.7809" x2="139.8801" y2="248.4164" gradientTransform="matrix(1 -1.880132e-03 1.880185e-03 1 -1.8245 -0.2122)">
			<stop  offset="2.944410e-03" style="stop-color:#69C2FF"/>
			<stop  offset="1" style="stop-color:#38ADFF"/>
		</linearGradient>
		<polygon class="st36" points="214,233.8 213.9,200.1 243,183.3 242.9,149.7 184.8,183.4 184.8,217 		"/>
		
			<linearGradient id="SVGID_38_" gradientUnits="userSpaceOnUse" x1="297.0051" y1="135.3579" x2="134.4579" y2="239.9936" gradientTransform="matrix(1 -1.880132e-03 1.880185e-03 1 -1.8245 -0.2122)">
			<stop  offset="2.944410e-03" style="stop-color:#9BD7FF"/>
			<stop  offset="1" style="stop-color:#69C2FF"/>
		</linearGradient>
		<polygon class="st37" points="242.9,149.7 242.9,149.7 272.1,166.4 272.1,166.4 300.4,182.7 301.2,183.2 301.2,149.7 242.9,116.2 
			242.9,116.2 		"/>
		
			<linearGradient id="SVGID_39_" gradientUnits="userSpaceOnUse" x1="289.3842" y1="123.5193" x2="126.837" y2="228.155" gradientTransform="matrix(1 -1.880132e-03 1.880185e-03 1 -1.8245 -0.2122)">
			<stop  offset="2.944410e-03" style="stop-color:#69C2FF"/>
			<stop  offset="1" style="stop-color:#9BD7FF"/>
		</linearGradient>
		<polygon class="st38" points="301.1,116.3 272,99.4 242.9,116.2 301.2,149.7 		"/>
		
			<linearGradient id="SVGID_40_" gradientUnits="userSpaceOnUse" x1="368.6298" y1="394.9115" x2="301.5054" y2="196.1706" gradientTransform="matrix(1 -1.880132e-03 1.880185e-03 1 -1.8245 -0.2122)">
			<stop  offset="1.923681e-03" style="stop-color:#005AFF"/>
			<stop  offset="0.9995" style="stop-color:#00B8FF"/>
		</linearGradient>
		<polygon class="st39" points="301.2,183.2 301.3,216.8 301.4,284 330.5,267.2 330.4,199.9 		"/>
		
			<linearGradient id="SVGID_41_" gradientUnits="userSpaceOnUse" x1="350.5218" y1="218.4938" x2="187.9747" y2="323.1294" gradientTransform="matrix(1 -1.880132e-03 1.880185e-03 1 -1.8245 -0.2122)">
			<stop  offset="2.944410e-03" style="stop-color:#CDEBFF"/>
			<stop  offset="0.9995" style="stop-color:#38ADFF"/>
		</linearGradient>
		<polygon class="st40" points="301.4,284 301.4,284 301.3,216.8 243.1,250.5 		"/>
		
			<linearGradient id="SVGID_42_" gradientUnits="userSpaceOnUse" x1="319.9018" y1="170.927" x2="157.3548" y2="275.5625" gradientTransform="matrix(1 -1.880132e-03 1.880185e-03 1 -1.8245 -0.2122)">
			<stop  offset="2.944410e-03" style="stop-color:#CDEBFF"/>
			<stop  offset="1" style="stop-color:#69C2FF"/>
		</linearGradient>
		<polygon class="st41" points="272.1,166.4 272.1,166.4 243,183.3 243.1,250.5 301.3,216.8 301.2,183.2 300.4,182.7 		"/>
	</g>
	<g>
		<g>
			<g>
				<path class="st42" d="M492.7,180.6v71.6c0,17.4-13.9,31.6-31.3,31.6h-22.9c-4.6,0-8.7-4.1-8.7-8.7V157.7c0-4.9,4.1-8.7,8.7-8.7
					h22.9C478.8,149,492.7,163.2,492.7,180.6z M475.2,180.6c0-7.9-6.3-14.2-13.9-14.2h-14.2v99.6h14.2c7.6,0,13.9-6.3,13.9-13.9
					V180.6z"/>
				<path class="st42" d="M532.7,166.5v41.1h23.7c2.5,0,4.4,1.9,4.4,4.4v8.7c0,2.4-1.9,4.4-4.4,4.4h-23.7v41.4h23.7
					c2.5,0,4.4,1.9,4.4,4.4v8.7c0,2.5-1.9,4.4-4.4,4.4H524c-4.9,0-8.7-4.1-8.7-8.7V157.7c0-4.9,3.8-8.7,8.7-8.7h32.4
					c2.5,0,4.4,1.9,4.4,4.4v8.7c0,2.5-1.9,4.4-4.4,4.4H532.7z"/>
				<path class="st42" d="M617.6,189.6v-9.3c0-7.6-6.3-13.9-13.9-13.9c-7.6,0-13.9,6.3-13.9,13.9c0,3.5,0,3.5,0.8,4.6l37.8,50.1
					c6.5,8.7,6.5,8.7,6.5,17.4c0,17.1-14.2,31.3-31.3,31.3c-17.2,0-31.3-14.2-31.3-31.3v-9.3c0-2.5,1.9-4.4,4.4-4.4h8.7
					c2.5,0,4.4,1.9,4.4,4.4v9.3c0,7.6,6.3,13.9,13.9,13.9c7.6,0,13.9-6.3,13.9-13.9c0-3.5,0-3.5-0.8-4.6l-37.8-50.1
					c-6.5-8.7-6.5-8.7-6.5-17.4c0-17.2,14.2-31.3,31.3-31.3c17.1,0,31.3,14.2,31.3,31.3v9.3c0,2.5-1.9,4.4-4.4,4.4H622
					C619.5,194,617.6,192,617.6,189.6z"/>
				<path class="st42" d="M697.4,189.6v-9.3c0-7.6-6.3-13.9-13.9-13.9c-7.6,0-13.9,6.3-13.9,13.9c0,3.5,0,3.5,0.8,4.6l37.8,50.1
					c6.5,8.7,6.5,8.7,6.5,17.4c0,17.1-14.2,31.3-31.3,31.3c-17.2,0-31.3-14.2-31.3-31.3v-9.3c0-2.5,1.9-4.4,4.4-4.4h8.7
					c2.5,0,4.4,1.9,4.4,4.4v9.3c0,7.6,6.3,13.9,13.9,13.9c7.6,0,13.9-6.3,13.9-13.9c0-3.5,0-3.5-0.8-4.6l-37.8-50.1
					c-6.5-8.7-6.5-8.7-6.5-17.4c0-17.2,14.2-31.3,31.3-31.3c17.1,0,31.3,14.2,31.3,31.3v9.3c0,2.5-1.9,4.4-4.4,4.4h-8.7
					C699.3,194,697.4,192,697.4,189.6z"/>
				<path class="st42" d="M797.5,180.6v98.8c0,2.5-1.9,4.4-4.4,4.4h-8.7c-2.5,0-4.4-1.9-4.4-4.4v-54.2h-28v54.2
					c0,2.5-1.9,4.4-4.4,4.4H739c-2.5,0-4.4-1.9-4.4-4.4v-98.8c0-17.1,14.2-31.3,31.6-31.3C783.4,149.3,797.5,163.5,797.5,180.6z
					 M780.1,180.6c0-7.6-6.3-13.9-13.9-13.9c-7.9,0-14.2,6.3-14.2,13.9v27.2h28V180.6z"/>
			</g>
		</g>
		<g>
			<path class="st42" d="M824.5,149v2.5h-4.3v11.9h-3v-11.9h-4.3V149H824.5z"/>
			<path class="st42" d="M835.8,149h4.3v14.4h-2.8v-9.7c0-0.3,0-0.7,0-1.2c0-0.5,0-0.9,0-1.2l-2.7,12.1h-2.9l-2.7-12.1
				c0,0.3,0,0.7,0,1.2c0,0.5,0,0.9,0,1.2v9.7h-2.8V149h4.4l2.6,11.3L835.8,149z"/>
		</g>
	</g>
</g>
</svg>
